<svg width="1200" height="900" viewBox="0 0 1200 900" fill="none" xmlns="http://www.w3.org/2000/svg">
  <defs>
    <linearGradient id="wall" x1="0" y1="0" x2="1200" y2="900" gradientUnits="userSpaceOnUse">
      <stop stop-color="#F2EEE8"/>
      <stop offset="1" stop-color="#E4DDD6"/>
    </linearGradient>
    <linearGradient id="screen" x1="332" y1="150" x2="872" y2="420" gradientUnits="userSpaceOnUse">
      <stop stop-color="#FAF8F2"/>
      <stop offset="0.55" stop-color="#D4F7FF"/>
      <stop offset="1" stop-color="#7ED6D6"/>
    </linearGradient>
    <linearGradient id="shelf" x1="150" y1="580" x2="704" y2="676" gradientUnits="userSpaceOnUse">
      <stop stop-color="#5C392B"/>
      <stop offset="1" stop-color="#2F1C16"/>
    </linearGradient>
    <linearGradient id="shadow" x1="0" y1="0" x2="1" y2="1">
      <stop stop-color="#000000" stop-opacity="0.2"/>
      <stop offset="1" stop-color="#000000" stop-opacity="0"/>
    </linearGradient>
  </defs>

  <rect width="1200" height="900" rx="44" fill="url(#wall)"/>

  <rect x="286" y="120" width="628" height="370" rx="10" fill="#1C1A1A"/>
  <rect x="306" y="140" width="588" height="330" fill="url(#screen)"/>
  <path d="M317 365C437 281 529 342 610 311C690 281 785 364 882 302V470H306V140H882V260C824 280 809 269 748 287C690 304 665 350 588 348C491 344 437 280 317 365Z" fill="#FFFFFF" fill-opacity="0.22"/>
  <rect x="566" y="470" width="66" height="14" rx="7" fill="#1C1A1A"/>
  <text x="600" y="498" fill="#FFFFFF" font-family="Georgia, serif" font-size="28" font-weight="700" text-anchor="middle">SAMSUNG</text>

  <rect x="304" y="576" width="592" height="24" rx="4" fill="url(#shelf)"/>
  <rect x="122" y="664" width="566" height="28" rx="4" fill="url(#shelf)"/>
  <rect x="416" y="600" width="24" height="64" fill="url(#shelf)"/>
  <rect x="562" y="600" width="24" height="64" fill="url(#shelf)"/>

  <rect x="478" y="572" width="172" height="40" rx="18" fill="#FBFBFB" stroke="#E1E1E1" stroke-width="4"/>
  <path d="M524 590H607" stroke="#D0D0D0" stroke-width="4" stroke-linecap="round"/>
  <path d="M516 599H615" stroke="#D0D0D0" stroke-width="3" stroke-linecap="round"/>
  <circle cx="505" cy="595" r="6" fill="#EBEBEB"/>

  <rect x="480" y="642" width="144" height="34" rx="8" fill="#171717"/>
  <circle cx="506" cy="659" r="7" fill="#444444"/>
  <rect x="582" y="651" width="26" height="6" rx="3" fill="#5C5C5C"/>

  <rect x="223" y="617" width="42" height="56" rx="6" fill="#151515"/>
  <circle cx="244" cy="651" r="12" fill="#2F2F2F" stroke="#6D6D6D" stroke-width="3"/>
  <circle cx="244" cy="651" r="4" fill="#BFBFBF"/>

  <rect x="724" y="548" width="42" height="98" rx="6" fill="#151515"/>
  <circle cx="745" cy="597" r="12" fill="#2F2F2F" stroke="#6D6D6D" stroke-width="3"/>
  <circle cx="745" cy="597" r="4" fill="#BFBFBF"/>

  <rect x="394" y="570" width="52" height="12" rx="6" fill="#1C1A1A"/>
  <path d="M384 578C404 564 423 564 444 578" stroke="#404040" stroke-width="4" stroke-linecap="round"/>

  <rect x="284" y="118" width="632" height="374" rx="12" stroke="#4A4340" stroke-width="6"/>
  <rect x="0" y="730" width="1200" height="170" fill="url(#shadow)"/>
</svg>
